/* XPM */
static char *e707aac3c02f4f978496aa7ed8cea4aado2PDt32USFwPtV4[] = {
/* columns rows colors chars-per-pixel */
"64 64 22 1 ",
"  c None",
". c #89A4A6",
"X c #8AA5A7",
"o c #8BA7A9",
"O c #8DA9AB",
"+ c #8EABAD",
"@ c #90ACAE",
"# c #91AEB0",
"$ c #93B0B2",
"% c #94B2B4",
"& c #95B3B5",
"* c #97B5B7",
"= c #98B7B9",
"- c #9AB9BA",
"; c #9AB9BB",
": c #9BBABC",
"> c #9DBCBE",
", c #9EBEBF",
"< c #9EBEC0",
"1 c #A0C0C1",
"2 c #A0C0C2",
"3 c #A0C1C2",
/* pixels */
"                                                                ",
"                                                                ",
"                                                                ",
"                                                                ",
"                                                                ",
"                                                                ",
"                                                                ",
"                                                                ",
"                                                                ",
"                                                                ",
"                                                                ",
"                                                                ",
"                                                                ",
"                                                                ",
"                                                                ",
"                                                                ",
"                                                                ",
"                                                                ",
"                                                                ",
"                                                                ",
"                                                                ",
"                                                                ",
"                                                                ",
"                                                                ",
"                                                                ",
"                                                                ",
"                                                                ",
"                                                                ",
"                                                                ",
"                                                                ",
"                2                               2               ",
"               2222                            2222             ",
"              22*%2                           22*%2             ",
"              22%.#                           22%.#             ",
"             222%..>                         222%..>            ",
"             222%..%                         222%..%            ",
"             222%...1                       2222%...>           ",
"            2222%...=                       2222%...=           ",
"            2222%...+<                      2222%...O1          ",
"           22222%....-                     22222%....-          ",
"           22222%....#                     22222*....@2         ",
"          222222%.....>                   222222%.....>         ",
"          222222%.....%                   222222%.....#         ",
"          222222%.....o2                 2222222%......>        ",
"         2222222%......*                 2222222%......*        ",
"         2222222%......O2                2222222%......o2       ",
"        22222211%.......-               22222222%.......*       ",
"        22222211%.......#               22222222%.......+2      ",
"       222222222%........>             222222222%........-      ",
"       222222222%........%             222222222%........#      ",
"       222222222%........o2           2222222222%.........<     ",
"      2222222222%.........*           2222222222%.........%     ",
"      2222222222%.........+1          2222222222%..........2    ",
"     22222222222%..........-         22222222222%..........*    ",
"     22222222222%..........%         22222222222%..........O2   ",
"    222222222222%...........<       222222222222%...........-   ",
"    222222222222%...........*       222222222222%...........#   ",
"    222222222222%...........o2     2222222222222%............>  ",
"   2222222222222%............*     2222222222222%............%  ",
"   2222222222222%............+2    2222222222222%.............< ",
"  22222222222222%.............>   22222222222222%.............* ",
"  22222222222222%.............@   22222222222222%.............O2",
" 222222222222222%..............> 222222222222222%..............=",
" 222222222222222%..............% 22222222222222<%..............+"
};
