/* XPM */
static char *result[] = {
/* columns rows colors chars-per-pixel */
"64 64 89 1 ",
"  c #323232",
". c gray20",
"X c #4B3533",
"o c #5C5C3F",
"O c #694C39",
"+ c #64513B",
"@ c #60573D",
"# c #725540",
"$ c #765A44",
"% c #7B5E48",
"& c #586543",
"* c #546B45",
"= c #46794A",
"- c #7D6149",
"; c #696154",
": c #756254",
"> c #8D3F37",
", c #AE4439",
"< c #BA4539",
"1 c #CD4335",
"2 c #D04435",
"3 c #D14436",
"4 c #D34536",
"5 c #D84638",
"6 c #DA4738",
"7 c #DD4839",
"8 c #E0493A",
"9 c #E54B3B",
"0 c #E64C3C",
"q c #E74C3C",
"w c #85674F",
"e c #84684F",
"r c #8E7157",
"t c #A17C4F",
"y c #CF5C42",
"u c #E85543",
"i c #C46445",
"p c #ED7159",
"a c #E37860",
"s c #EE7A60",
"d c #23A65A",
"f c #24A65B",
"g c #2CAA5F",
"h c #27B061",
"j c #27B062",
"k c #28B061",
"l c #28B162",
"z c #408B52",
"x c #739C5D",
"c c #45BC6A",
"v c #50B467",
"b c #67A460",
"n c #39C46D",
"m c #2DCC70",
"M c #2ECC70",
"N c #2ECC71",
"B c #55C072",
"V c #8A8C56",
"C c #A18366",
"Z c #AA8C6D",
"A c #B49675",
"S c #89B373",
"D c #90B173",
"F c #E48B6B",
"G c #F39676",
"H c #62D181",
"J c #6FD285",
"K c #C6A884",
"L c #D0B18B",
"P c #D6BD92",
"I c #D6BC93",
"U c #D7BC93",
"Y c #D7BD93",
"T c #D9BB93",
"R c #E8A781",
"E c #F7B18C",
"W c #8CD58D",
"Q c #E2C49A",
"! c #FAC49B",
"~ c #EBCEA2",
"^ c #FCCDA2",
"/ c #E4DDA9",
"( c #F0D2A5",
") c #F2D5A7",
"_ c #F5D6A9",
"` c #F5D7A9",
"' c #FFE0B0",
"] c #FFE0B1",
"[ c None",
/* pixels */
"[[[[[[[[[[[[[[[[[[[[[[[[[[[[[[[[[[[[[[[[[[[[[[[[[[[[[[[[[[[[[[[[",
"[[[[[[[[[[[[[[[[[[[[[[[[[[[[[[[[[[[[[[[[[[[[[[[[[[[[[[[[[[[[[[[[",
"[[[[[[[[[[[[[[[[[[[[[[[[[[[[[[[[[[[[[[[[[[[[[[[[[[[[[[[[[[[[[[[[",
"[[[[[[[[[[[[[[[[[[[[[[[[[[[[[[[[[[[[[[[[[[[[[[[[[[[[[[[[[[[[[[[[",
"[[[[[[[[[[[[[[[[[[[[[[[[[[[[[[[[[[[[[[[[[[[[[[[[[[[[[[[[[[[[[[[[",
"[[[[[[[[[[[[[[[[[[[[[[[[[[[[[[[[[[[[[[[[[[[[[[[[[[[[[[[[[[[[[[[[",
"[[[[[[[[[[[[[[[[[[[[[[[[[[[[[[[[[[[[[[[[[[[[[[[[[[[[[[[[[[[[[[[[",
"[[[[[[[[[[[[[[[[[[[[[[[[jkkkkkkkkkkkkkkk[[[[[[[[[[[[[[[[[[[[[[[[",
"[[[[[[[[[[[[[[[[[[jkllllllllllllllllllllllllhk[[[[[[[[[[[[[[[[[[",
"[[[[[[[[[[[[[[[[hllllllllllllllllllllllllllllllh[[[[[[[[[[[[[[[[",
"[[[[[[[[[[[[[[[llllllllllllllllllllllllllllllllll[[[[[[[[[[[[[[[",
"[[[[[[[[[[[[[[kllllllllllllllllllllllllllllllllllk[[[[[[[[[[[[[[",
"[[[[[[[[[[[[[[llllllllllllllllllllllllllllllllllll[[[[[[[[[[[[[[",
"[[[[[[[[[[[[[[llllllllllllllllllllllllllllllllllll[[[[[[[[[[[[[[",
"[[[[[[[[[[[[[[llllllllllllllllllllllllllllllllllll[[[[[[[[[[[[[[",
"[[[[[[[[[[[[[[llllllllllllllllllllllllllllllllllll[[[[[[[[[[[[[[",
"[[[[[[[[[[[[[[llllllllllllllllllllllllllllllllllll[[[[[[[[[[[[[[",
"[[[[[[[[[[[[[[llllllllllllllllllllllllllllllllllll[[[[[[[[[[[[[[",
"[[[[[[[[[[[[[[llllllllllllllgz&&&&zgllllllllllllll[[[[[[[[[[[[[[",
"[[[[[[[[[[[[[[llllllllllllll*OOOOOO*llllllllllllll[[[[[[[[[[[[[[",
"[[[[[[[[[[[[[[fffffffffffff=OOOOOOOO=fffffffffffff[[[[[[[[[[[[[[",
"[[[[[[[[[[[[[[fffffffffffff+OOOOOOOO+fffffffffffff[[[[[[[[[[[[[[",
"[[[[[[[[[[[[[[fffffffffffffoOOOOOOOO@fffffffffffff[[[[[[[[[[[[[[",
"[[[[[[[[[[[[[[dffffffffffffffffffffffffffffffffffd[[[[[[[[[[[[[[",
"[[[[[[[[[[[[[[[ffffffffffffffffffffffffffffffffff[[[[[[[[[[[[[[[",
"[[[[[[[[[[[[[[[OOOOOOOOOOOOOOOOOOOOOOOOOOOOOOOOOO[[[[[[[[[[[[[[[",
"[[[[[[[[[[[[[[[OOOOOOOOOOOOOOOOOOOOOOOOOOOOOOOOOO[[[[[[[[[[[[[[[",
"[[[[[[[[[[[[[IUOOOOOOOOOOOOOOOOOOOOOOOOOOOOOOOOOOUI[[[[[[[[[[[[[",
"[[[[[[[[[[[[PYYOOOOOOOOOOOOOOOOOOOOOOOOOOOOOOOOOOYYP[[[[[[[[[[[[",
"[[[[[[[[[[[UYYYOOOOOOOOOOOOOOOOOOOOOOOOOOOOOOOOOOYYYU[[[[[[[[[[[",
"[[[[[[[[[[[YYYYOOOOOOOOOOOOOOOOOOOOOOOOOOOOOOOOOOYYYY[[[[[[[[[[[",
"[[[[[[[[[[[YYYY-OOOOOOOOOOOOOOOOOOOOOOOOOOOOOOOO$YYYY[[[[[[[[[[[",
"[[[[[[[[[[[UYYYeOOOOOOOOOOOOOOOOOOOOOOOOOOOOOOOOeYYYU[[[[[[[[[[[",
"[[[[[[[[[[[[PYY)QTArOOOOOOOOOOOOOOOOOOOOOOOOwATQ`YYP[[[[[[[[[[[[",
"[[[[[[[[[[[[[UY~]]]]]TLZrr%OOOOOOOOOO#rrCKT_]]]](YU[[[[[[[[[[[[[",
"[[[[[[[[[[[[[[[[]]]]]]]]]]]]]]]]]]]]]]]]]]]]]]]][[[[[[[[[[[[[[[[",
"[[[[[[[[[[[[[[[[]]]]]]]]]]]]]]]]]]]]]]]]]]]]]]]][[[[[[[[[[[[[[[[",
"[[[[[[[[[[[[[[[[]]]]]]]]]]]]]]]]]]]]]]]]]]]]]]]][[[[[[[[[[[[[[[[",
"[[[[[[[[[[[[[[[[']]]]]]]]]]]]]]]]]]]]]]]]]]]]]]'[[[[[[[[[[[[[[[[",
"[[[[[[[[[[[[[[[mB^]]]]]]]]]]]]]]]]]]]]]]]]]]]]^Sm[[[[[[[[[[[[[[[",
"[[[[[[[[[[[[[[NNVuppppppDHHHHHHHHHHHHHHDpppppputNN[[[[[[[[[[[[[[",
"[[[[[[[[[[[[[MNNyqqqqqqqynNNNNNNNNNNNNnyqqqqqqqqcNM[[[[[[[[[[[[[",
"[[[[[[[[[[[[mNNcqqqqqqqqqyvNNNNNNNNNNvyqqqqqqqqqxNNm[[[[[[[[[[[[",
"[[[[[[[[[[[[MNJRqqqqqqqqqqqibnNNNNnbiqqqqqqqqqqqFJNM[[[[[[[[[[[[",
"[[[[[[[[[[[[NJ]Gqqqqqqqqqqqqqqqqqqqqqqqqqqqqqqqqp]JN[[[[[[[[[[[[",
"[[[[[[[[[[[[M/]Gqqqqqqqqqqqqqqqqqqqqqqqqqqqqqqqqp]/M[[[[[[[[[[[[",
"[[[[[[[[[[[[W]]Gqqq7444444qqqqqqqqqqqq4444447qqqp]]W[[[[[[[[[[[[",
"[[[[[[[[[[[[[]]Gqqq6111111qqqqqqqqqqqq1111116qqqp]][[[[[[[[[[[[[",
"[[[[[[[[[[[[[]]Gqqq7111112qqqqqqqqqqqq2111117qqqs]][[[[[[[[[[[[[",
"[[[[[[[[[[[[[]]Eqqq9311117qqqqqqqqqqqq7111139qqqG]][[[[[[[[[[[[[",
"[[[[[[[[[[[[[']!qqqq95448qqqqqqqqqqqqqq84459qqqq^]'[[[[[[[[[[[[[",
"[[[[[[[[[[[[[[']aqqqqqqqqqq00[[[[[[00qqqqqqqqqqp]'[[[[[[[[[[[[[[",
"[[[[[[[[[[[[[[[';,qqqqqqqq>X[[[[[[[[X>qqqqqqqq<:'[[[[[[[[[[[[[[[",
"[[[[[[[[[[[[[[[[............[[[[[[[[............[[[[[[[[[[[[[[[[",
"[[[[[[[[[[[[[[[[............[[[[[[[[............[[[[[[[[[[[[[[[[",
"[[[[[[[[[[[[[[[[[...........[[[[[[[[...........[[[[[[[[[[[[[[[[[",
"[[[[[[[[[[[[[[[[[[[. ...  [[[[[[[[[[[[ ..... [[[[[[[[[[[[[[[[[[[",
"[[[[[[[[[[[[[[[[[[[[[[[[[[[[[[[[[[[[[[[[[[[[[[[[[[[[[[[[[[[[[[[[",
"[[[[[[[[[[[[[[[[[[[[[[[[[[[[[[[[[[[[[[[[[[[[[[[[[[[[[[[[[[[[[[[[",
"[[[[[[[[[[[[[[[[[[[[[[[[[[[[[[[[[[[[[[[[[[[[[[[[[[[[[[[[[[[[[[[[",
"[[[[[[[[[[[[[[[[[[[[[[[[[[[[[[[[[[[[[[[[[[[[[[[[[[[[[[[[[[[[[[[[",
"[[[[[[[[[[[[[[[[[[[[[[[[[[[[[[[[[[[[[[[[[[[[[[[[[[[[[[[[[[[[[[[[",
"[[[[[[[[[[[[[[[[[[[[[[[[[[[[[[[[[[[[[[[[[[[[[[[[[[[[[[[[[[[[[[[[",
"[[[[[[[[[[[[[[[[[[[[[[[[[[[[[[[[[[[[[[[[[[[[[[[[[[[[[[[[[[[[[[[["
};
